<svg xmlns="http://www.w3.org/2000/svg" width="1200" height="630" viewBox="0 0 1200 630">
  <defs>
    <linearGradient id="bg" x1="0" y1="0" x2="1" y2="1">
      <stop offset="0%" stop-color="#07081c"/>
      <stop offset="50%" stop-color="#0d0f30"/>
      <stop offset="100%" stop-color="#1a0a2e"/>
    </linearGradient>
    <linearGradient id="gold" x1="0" y1="0" x2="1" y2="0">
      <stop offset="0%" stop-color="#c8780a"/>
      <stop offset="50%" stop-color="#ffd700"/>
      <stop offset="100%" stop-color="#c8780a"/>
    </linearGradient>
    <radialGradient id="glow" cx="50%" cy="50%" r="50%">
      <stop offset="0%" stop-color="#ffd700" stop-opacity="0.15"/>
      <stop offset="100%" stop-color="#ffd700" stop-opacity="0"/>
    </radialGradient>
  </defs>
  <rect width="1200" height="630" fill="url(#bg)"/>
  <rect width="1200" height="630" fill="url(#glow)"/>
  <!-- Stars -->
  <circle cx="100" cy="80" r="1.5" fill="#ffd700" opacity="0.7"/>
  <circle cx="250" cy="40" r="1" fill="#ffd700" opacity="0.5"/>
  <circle cx="400" cy="100" r="2" fill="#ffd700" opacity="0.6"/>
  <circle cx="550" cy="30" r="1.5" fill="#ffd700" opacity="0.4"/>
  <circle cx="700" cy="70" r="1" fill="#ffd700" opacity="0.7"/>
  <circle cx="850" cy="45" r="2" fill="#ffd700" opacity="0.5"/>
  <circle cx="1000" cy="90" r="1.5" fill="#ffd700" opacity="0.6"/>
  <circle cx="1150" cy="55" r="1" fill="#ffd700" opacity="0.4"/>
  <circle cx="180" cy="560" r="1.5" fill="#ffd700" opacity="0.4"/>
  <circle cx="320" cy="590" r="1" fill="#ffd700" opacity="0.6"/>
  <circle cx="900" cy="580" r="2" fill="#ffd700" opacity="0.5"/>
  <circle cx="1080" cy="545" r="1.5" fill="#ffd700" opacity="0.7"/>
  <!-- Border -->
  <rect x="20" y="20" width="1160" height="590" fill="none" stroke="url(#gold)" stroke-width="1.5" opacity="0.5"/>
  <rect x="30" y="30" width="1140" height="570" fill="none" stroke="url(#gold)" stroke-width="0.5" opacity="0.3"/>
  <!-- Corner ornaments -->
  <text x="35" y="65" font-size="32" fill="#ffd700" opacity="0.6" font-family="serif">✦</text>
  <text x="1135" y="65" font-size="32" fill="#ffd700" opacity="0.6" font-family="serif">✦</text>
  <text x="35" y="610" font-size="32" fill="#ffd700" opacity="0.6" font-family="serif">✦</text>
  <text x="1135" y="610" font-size="32" fill="#ffd700" opacity="0.6" font-family="serif">✦</text>
  <!-- Diya flame glow -->
  <ellipse cx="600" cy="155" rx="60" ry="40" fill="#ffd700" opacity="0.08"/>
  <!-- Flame -->
  <path d="M600 135 C590 120 580 100 600 85 C620 100 610 120 600 135Z" fill="#ffd700" opacity="0.9"/>
  <path d="M600 135 C594 122 588 108 600 96 C612 108 606 122 600 135Z" fill="#fff" opacity="0.6"/>
  <!-- Diya body -->
  <ellipse cx="600" cy="145" rx="22" ry="8" fill="#c8780a"/>
  <path d="M578 145 Q600 158 622 145" stroke="#ffd700" stroke-width="1" fill="none"/>
  <!-- Lotus left -->
  <g transform="translate(200,315)">
    <path d="M0 0 C-10-15-20-25-15-35 C-8-25 0-15 0 0Z" fill="#e8678a" opacity="0.6"/>
    <path d="M0 0 C10-15 20-25 15-35 C8-25 0-15 0 0Z" fill="#e8678a" opacity="0.6"/>
    <path d="M0 0 C-15-10-28-15-30-25 C-18-18-8-10 0 0Z" fill="#ffb3c6" opacity="0.5"/>
    <path d="M0 0 C15-10 28-15 30-25 C18-18 8-10 0 0Z" fill="#ffb3c6" opacity="0.5"/>
    <circle cx="0" cy="0" r="8" fill="#ffd700" opacity="0.7"/>
  </g>
  <!-- Lotus right -->
  <g transform="translate(1000,315)">
    <path d="M0 0 C-10-15-20-25-15-35 C-8-25 0-15 0 0Z" fill="#e8678a" opacity="0.6"/>
    <path d="M0 0 C10-15 20-25 15-35 C8-25 0-15 0 0Z" fill="#e8678a" opacity="0.6"/>
    <path d="M0 0 C-15-10-28-15-30-25 C-18-18-8-10 0 0Z" fill="#ffb3c6" opacity="0.5"/>
    <path d="M0 0 C15-10 28-15 30-25 C18-18 8-10 0 0Z" fill="#ffb3c6" opacity="0.5"/>
    <circle cx="0" cy="0" r="8" fill="#ffd700" opacity="0.7"/>
  </g>
  <!-- Names -->
  <text x="600" y="225" text-anchor="middle" font-family="Georgia,serif" font-size="52" font-weight="bold" fill="url(#gold)" letter-spacing="3">Muthu Narendran</text>
  <text x="600" y="275" text-anchor="middle" font-family="Georgia,serif" font-size="32" fill="#e8678a" letter-spacing="8">❦  weds  ❦</text>
  <text x="600" y="335" text-anchor="middle" font-family="Georgia,serif" font-size="52" font-weight="bold" fill="url(#gold)" letter-spacing="3">Sumathi</text>
  <!-- Divider line -->
  <line x1="350" y1="360" x2="550" y2="360" stroke="url(#gold)" stroke-width="1" opacity="0.5"/>
  <circle cx="600" cy="360" r="4" fill="#ffd700" opacity="0.8"/>
  <line x1="650" y1="360" x2="850" y2="360" stroke="url(#gold)" stroke-width="1" opacity="0.5"/>
  <!-- Date & venue -->
  <text x="600" y="405" text-anchor="middle" font-family="Georgia,serif" font-size="24" fill="#fffbf0" letter-spacing="2">Wednesday, 17 June 2026  ·  9:30 AM</text>
  <text x="600" y="445" text-anchor="middle" font-family="Georgia,serif" font-size="18" fill="#ffb347" letter-spacing="1" opacity="0.85">Illathu Pillamar Sanga Kalyana Mandapam, Srivilliputhur</text>
  <!-- Blessing -->
  <text x="600" y="510" text-anchor="middle" font-family="Georgia,serif" font-size="16" fill="#ffd700" opacity="0.7" font-style="italic">Your presence is our greatest blessing</text>
  <!-- Kolam dots -->
  <circle cx="470" cy="555" r="2.5" fill="#ffd700" opacity="0.5"/>
  <circle cx="500" cy="555" r="2.5" fill="#ffd700" opacity="0.5"/>
  <circle cx="530" cy="555" r="2.5" fill="#ffd700" opacity="0.5"/>
  <circle cx="560" cy="555" r="2.5" fill="#ffd700" opacity="0.5"/>
  <circle cx="590" cy="555" r="2.5" fill="#ffd700" opacity="0.5"/>
  <circle cx="620" cy="555" r="2.5" fill="#ffd700" opacity="0.5"/>
  <circle cx="650" cy="555" r="2.5" fill="#ffd700" opacity="0.5"/>
  <circle cx="680" cy="555" r="2.5" fill="#ffd700" opacity="0.5"/>
  <circle cx="710" cy="555" r="2.5" fill="#ffd700" opacity="0.5"/>
  <circle cx="740" cy="555" r="2.5" fill="#ffd700" opacity="0.5"/>
</svg>
